<?xml version="1.0" encoding="utf-8"?>
<!-- Generator: Adobe Illustrator 19.0.0, SVG Export Plug-In . SVG Version: 6.00 Build 0)  -->
<svg version="1.1"
	 id="Layer_1" xmlns:rdf="http://www.w3.org/1999/02/22-rdf-syntax-ns#" xmlns:cc="http://creativecommons.org/ns#" xmlns:dc="http://purl.org/dc/elements/1.1/"
	 xmlns="http://www.w3.org/2000/svg" xmlns:xlink="http://www.w3.org/1999/xlink" x="0px" y="0px" viewBox="-380 150 198 262"
	 style="enable-background:new -380 150 198 262;" xml:space="preserve">
<style type="text/css">
	.st0{fill:#FFFFFF;}
</style>
<path class="st0" d="M-351.1,378.4c0,1.4-0.1,4.1-3.1,5c-1,0.2-2,0.4-3,0.4h-2.4v-15.7h3.6c1.9,0.1,4,0.1,4.6,1.9
	c0.2,0.8,0.3,1.6,0.4,2.4V378.4L-351.1,378.4z M-359.5,388h2.5c3.2,0.1,6,0.5,7.1,3.2c0.2,1,0.4,2,0.4,3v6.5c0,3.1-0.2,4.6-1.4,5.5
	c-0.7,0.6-1.6,0.8-3.8,1h-4.7V388z M-347.3,386.9c-0.7-0.6-1.5-1-2.4-1.3c1.4-0.7,2.4-2,2.9-3.5c0.3-1.1,0.4-2.1,0.4-3.2v-7
	c-0.1-1.9-0.2-4.1-1.7-5.6c-1.5-1.6-3.7-2.4-5.9-2.3h-9.4c-0.4,0-0.7,0.4-0.7,0.8v46c0,0.5,0.2,0.8,0.7,0.8h9.6
	c2.4,0.1,4.7-0.7,6.5-2.2c2.2-2,2.5-4.4,2.5-7.1v-7.9C-344.8,391.8-344.8,389-347.3,386.9L-347.3,386.9z"/>
<path class="st0" d="M-327.7,373.5v7.2c0,1,0,3-2.3,3.7c-0.8,0.3-1.7,0.5-2.5,0.5h-5.2v-16.8h5.3c1,0,2.1,0.2,3,0.6
	C-327.8,369.5-327.8,371.6-327.7,373.5z M-329,388.6c0.4-0.1,0.6-0.2,1-0.4c2.4-0.8,4.2-2.8,4.8-5.3c0.3-1,0.4-2.1,0.4-3.1v-7.6
	c-0.1-1.3-0.1-4.4-2.8-6.6c-2.2-1.7-4.6-1.7-7-1.8h-9c-0.4,0-0.6,0.4-0.6,0.7v46.1c0,0.4,0.2,0.7,0.6,0.7h3.2c0.4,0,0.7-0.3,0.7-0.7
	c0,0,0,0,0-0.1V389h3.8l8.2,22c0.1,0.3,0.4,0.5,0.7,0.5h3.4c0.4,0,0.7-0.3,0.7-0.7c0-0.2,0-0.4-0.1-0.5L-329,388.6z"/>
<path class="st0" d="M-315.5,374.1c0-2.6,0.7-4.4,2.4-5.5c0.9-0.6,2-1,3.1-1c1,0,1.9,0.2,2.8,0.7c0.7,0.4,1.4,1.1,1.8,1.8
	c0.8,1.7,1.1,3.8,1.1,7.4V400c-0.1,2.4-0.2,5-2.4,6.6c-0.9,0.7-2,1.1-3.1,1.1c-2.2,0.1-4.2-1.1-5-3.1c-0.4-1.6-0.6-3.3-0.5-5
	L-315.5,374.1z M-303.5,365.2c-1.9-1.3-4.1-1.9-6.4-1.8h-0.2c-4.4,0-8,2.3-9.2,6c-0.5,1.6-0.7,3.2-0.8,4.8v26.6
	c0.1,2.5,0.2,5.4,2.3,8c2.3,2.8,6.1,3.1,7.7,3.1c5.6,0,7.9-3,8.6-4.3c1.3-2,1.4-4.1,1.6-6.5v-25.3
	C-299.9,372.2-299.9,367.8-303.5,365.2L-303.5,365.2z"/>
<path class="st0" d="M-292.6,374.1c0-2.6,0.7-4.4,2.3-5.5c0.9-0.6,2-0.9,3.1-0.8c1-0.1,2,0.2,2.9,0.7c0.7,0.4,1.4,1.1,1.8,1.8
	c0.8,1.6,1,3.8,1,7.4V400c0,2.5-0.1,5.2-2.3,6.7c-0.9,0.7-2,1-3.1,1c-2.2,0.1-4.2-1-5.2-3c-0.4-1.6-0.6-3.3-0.5-5V374.1z
	 M-280.7,365.2c-1.8-1.3-4-1.9-6.2-1.8h-0.2c-4.6,0-8,2.3-9.4,6c-0.4,1.6-0.7,3.2-0.7,4.8v26.6c0.1,2.6,0.1,5.5,2.2,8.2
	c2.4,2.8,6.1,3,7.8,3c5.5,0,7.9-3,8.6-4.3c1.3-2,1.4-4.1,1.6-6.4v-25.4C-277.1,372.2-277.1,367.8-280.7,365.2L-280.7,365.2z"/>
<path class="st0" d="M-264.5,382.7l9.6-18.1c0.1-0.2,0.1-0.4,0-0.6c-0.1-0.2-0.3-0.4-0.6-0.4h-3.6c-0.3,0-0.5,0.1-0.6,0.4
	l-10.2,19.8v-19.6c0-0.4-0.3-0.7-0.7-0.7c0,0,0,0-0.1,0h-3.2c-0.4,0-0.7,0.3-0.7,0.7v46.1c0,0.4,0.3,0.7,0.7,0.7c0,0,0,0,0.1,0h3.1
	c0.4,0,0.8-0.3,0.8-0.7V393l2.5-4.8l7.8,22.3c0.2,0.3,0.4,0.4,0.7,0.5h3.5c0.4,0,0.7-0.4,0.7-0.8c0-0.1-0.1-0.2-0.1-0.4
	L-264.5,382.7z"/>
<path class="st0" d="M-236.9,407.1h-11.3v-42.5c0-0.4-0.3-0.7-0.7-0.7h-3.2c-0.4,0-0.7,0.3-0.7,0.7v46.1c0,0.4,0.3,0.7,0.7,0.7h15.2
	c0.4,0,0.7-0.3,0.7-0.7v-2.9C-236.2,407.4-236.5,407.1-236.9,407.1z"/>
<path class="st0" d="M-219.8,363.9h-3.5c-0.3,0-0.6,0.2-0.7,0.5l-6.6,19.7l-6.6-19.7c-0.1-0.3-0.4-0.5-0.7-0.5h-3.4
	c-0.3,0-0.5,0.1-0.6,0.4c-0.1,0.2-0.1,0.4-0.1,0.6l9,25.6v20.3c0,0.4,0.4,0.7,0.8,0.7h3.1c0.4,0,0.7-0.3,0.7-0.7c0,0,0,0,0-0.1
	v-20.3l9.4-25.6c0.1-0.2,0.1-0.4,0-0.6C-219.2,364-219.5,363.9-219.8,363.9z"/>
<path class="st0" d="M-198.5,363.9h-3.2c-0.2,0-0.4,0.1-0.5,0.2c-0.1,0.1-0.2,0.3-0.2,0.5l0.2,33.6c0,1,0.1,1.8,0.1,2.8v1.6l-9.6-38
	c0-0.3-0.3-0.6-0.6-0.6h-4.8c-0.4,0-0.7,0.3-0.7,0.7v46.1c0,0.4,0.3,0.7,0.7,0.7c0,0,0,0,0.1,0h3.1c0.2,0,0.4,0,0.5-0.1
	c0.1-0.2,0.2-0.4,0.2-0.6l-0.2-32.6v-4.4l9.2,37.3c0.1,0.3,0.4,0.5,0.7,0.5h4.8c0.4,0,0.8-0.3,0.8-0.7v-46.1
	c0.1-0.3-0.1-0.6-0.5-0.7C-198.4,363.9-198.5,363.9-198.5,363.9z"/>
<path d="M-182.1,177.4v-5.8l-2.3-1.2c-1.7-0.8-40.9-20.4-95.4-20.4h-2.5c-54.5,0-93.7,19.6-95.3,20.4l-2.4,1.2v5.6
	c-0.4,23.2,2.4,82.1,38.4,127.8c29.2,37.2,56.6,45.7,59.6,46.6l1.2,0.4l1.2-0.2c1.2-0.4,29.2-8.5,59.2-46.6
	C-184.5,259.5-181.6,200.6-182.1,177.4z"/>
<path class="st0" d="M-280.7,345.9c-2.3-0.6-28.2-8.6-56.3-44.3c-36.8-46.9-37-108.2-36.7-122.8v-3.1c0.1,0,0.1-0.1,0.1-0.1
	c0,0,0,0,0,0v-0.1l0.8-0.4c2-0.8,6.4-2.8,12.7-5c25-9.1,51.4-13.8,78-13.8h2.5c26.5,0.1,52.8,4.7,77.6,13.8c6.4,2.3,10.8,4.2,12.7,5
	l0.8,0.4v0.1l0.1,0.1v3.1c0.4,14.5,0.2,75.8-36.7,122.8C-253,337.2-278.6,345.3-280.7,345.9z M-223.1,303.2
	c35.3-44.8,38-102.5,37.6-125.2v-4.2l-0.7-0.4c-1.6-0.8-40.1-19.9-93.5-19.9h-2.6c-53.4,0-91.8,19.1-93.5,19.9l-0.7,0.4v4
	c-0.5,22.8,2.3,80.5,37.6,125.3c28.4,36.2,54.8,44.6,57.8,45.4l0.4,0.1l0.4-0.1C-279.2,348.2-252.4,340.2-223.1,303.2z"/>
<path class="st0" d="M-212.8,204.6c-13.1-13.6-14.5-15.7-14.5-21.4c0-5.5,2.4-6.2,4.8-6.2c1.5,0,3,0.3,4.4,0.7
	c9.5,2.8,9.5,7.9,9.5,11.8v5.5c0,0.4,0.2,0.8,0.6,1c2.4,0.7,3.5,1.2,5.9,2c0.3,0.2,0.7,0.2,1-0.1c0.3-0.2,0.5-0.5,0.5-0.8v-4.6
	c0-5.8,0-15.5-16.9-20.4c-11.9-3.4-18,0.2-18,10.6c0,8.5,5.3,13.6,14,22.1l1.7,1.7c10.3,10.2,12.4,13.4,12.4,19.8
	c0,2.4-0.4,4-1.1,4.9c-0.7,1.1-1.8,1.4-3.6,1.4c-1.8,0-3.5-0.3-5.2-0.8c-4.6-1.3-7.8-3.1-9.8-5.3c-2.4-2.6-2.4-4.9-2.4-9.5v-4.8
	c0-0.5-0.2-1-0.7-1c-2.6-0.6-3.8-0.8-6.2-1.3c-0.3-0.1-0.6,0-0.8,0.2c-0.2,0.2-0.3,0.5-0.4,0.8v8.6c0,8,6.7,14.3,19.2,17.9
	c3,1,6.1,1.5,9.2,1.6c9.7,0,9.7-8,9.7-11.4C-199.5,218.8-204.1,213.6-212.8,204.6z M-239.2,167.8c-12.5-2.3-25.2-3.5-37.9-3.6
	c-0.5-0.1-1,0.2-1.1,0.7c0,0.1,0,0.3,0,0.4v3.8c0,0.6,0.5,1,1.1,1.1c5.9,0,9,0.2,14.6,0.6v56.9c0,0.6,0.4,1,1,1.1
	c2.5,0.2,3.7,0.2,6.2,0.6h0.1c0.3,0,0.5-0.1,0.6-0.4c0.3-0.1,0.4-0.4,0.4-0.7v-56.6c5.6,0.6,8.9,1.1,14.8,2.2c0.3,0,0.6-0.1,0.8-0.2
	c0.2-0.2,0.4-0.5,0.4-0.8v-3.8C-238.4,168.4-238.7,168-239.2,167.8L-239.2,167.8z M-283.5,164.3c-10.7,0.1-21.4,1.1-31.9,2.9
	c-0.5,0-1,0.4-1,0.9c0,0,0,0,0,0v61.7c0,0.3,0.2,0.5,0.4,0.7c0.2,0.1,0.5,0.2,0.7,0.2h0.1c10.4-1.7,21-2.6,31.6-2.8
	c0.6-0.1,1-0.5,1-1.1v-3.8c0-0.3-0.1-0.5-0.4-0.7c-0.1-0.3-0.4-0.4-0.7-0.4c-8.2,0.1-16.4,0.7-24.5,1.8v-24.4
	c6.6-0.9,13.3-1.5,20-1.7c0.5,0,0.9-0.3,1-0.8c0-0.1,0-0.1,0-0.2V193c0-0.3-0.1-0.5-0.2-0.7c-0.2-0.2-0.5-0.3-0.7-0.2
	c-6.7,0.1-13.4,0.7-20,1.6V172c8.2-1.1,16.4-1.8,24.6-1.8c0.5,0.1,1-0.3,1.1-0.9c0,0,0-0.1,0-0.1v-3.8c0-0.3-0.1-0.6-0.4-0.7
	C-283,164.5-283.2,164.3-283.5,164.3z M-324.4,168.8c-2.4,0.5-3.6,0.7-6,1.3c-0.5,0-0.9,0.5-0.8,1l0.5,44.8c0,3,0.1,5.8,0.2,8.3
	c-6-15.6-12.4-31.7-18.8-47.9c-0.2-0.5-0.7-0.7-1.2-0.6c-3.6,1.2-5.4,1.8-8.9,3.2c-0.4,0.1-0.7,0.5-0.7,1v61.7
	c0,0.3,0.2,0.6,0.5,0.7c0.1,0.2,0.4,0.2,0.6,0.2c0.1,0,0.3,0,0.4-0.1c2.2-0.8,3.4-1.2,5.5-2c0.4-0.1,0.8-0.5,0.7-1
	c-0.1-14.5-0.1-29.2-0.2-43.7c0-3.8,0-6-0.1-8.8c6.2,16.2,12.5,31.9,18.4,46.9c0.1,0.5,0.6,0.8,1.1,0.6c0,0,0.1,0,0.1,0
	c3.7-0.8,5.6-1.3,9.4-2c0.5-0.1,0.8-0.5,0.8-1v-61.7c0-0.3-0.1-0.6-0.4-0.8C-323.7,168.7-324.1,168.7-324.4,168.8z"/>
<path class="st0" d="M-246.4,308.3c-0.6,0.5-1.2,0.8-1.9,1.3c-1.7,1.2-3.5,2.2-5.2,3.2c-0.8,0.6-1.7,1.1-2.5,1.6
	c-6.1,3.8-13.6,8-21.4,10.4c-2.1,0.6-4.3,1.2-6.5,1.6c-1.8,0.3-3.7,0.5-5.5,0.5h-0.4c-2.3,0-4.5-0.2-6.7-0.6
	c8.5,3,17.7,3.4,26.5,1.3c5.1-1.3,9.9-3.4,14.3-6.2c4.3-3.5,7.6-8,9.5-13.2C-246.3,308.2-246.4,308.2-246.4,308.3z M-288.2,324.6
	c5-0.6,9.9-2.1,14.4-4.4c0.8-0.3,1.5-0.7,2.2-1.2c0.6-0.2,1.2-0.6,1.8-0.8c4.2-2.2,8.6-4.6,14-7.6c2-1,3.8-2,5.8-3.1l2.2-1.2
	c0.8-0.5,1.7-0.8,2.4-1.3c0.1-0.1,0.1-0.1,0.2-0.1c0.7-2.7,1.2-5.5,1.4-8.3c-5.4,2.6-13.4,5-25.2,7.4c-15,3-29.8,1.7-43-4
	c-8.9-3.7-13.1-8.9-14.8-11.6c0.2,2,0.6,4,1.1,6c2.9,11,9.7,20.7,19.2,27v-0.1l1.2,0.7c1.3,0.7,2.6,1.3,4,1.7
	c2.8,0.8,5.7,1.2,8.6,1.2C-291.2,324.9-289.7,324.8-288.2,324.6z M-241.1,305.2c-0.1-0.1-0.1-0.1-0.2-0.1c-0.4,0-0.8,0.2-1.1,0.4
	c-0.1,0.1-0.2,0.2-0.4,0.2c-0.1,0.1-0.2,0.1-0.4,0.2c-1.1,3-2.6,5.9-4.4,8.5c2.6-2.7,4.8-5.6,6.6-8.9h-0.1V305.2z M-239.3,293.8
	c-0.2,0.2-0.4,0.2-0.5,0.5c-0.3,0.1-0.5,0.3-0.7,0.5c-0.3,2.9-0.8,5.7-1.7,8.5c1.4-0.5,2,0.1,2.2,0.5c0,0.1,0,0.1,0.1,0.1
	c2.4-4.7,4-9.8,4.6-15C-236.2,290.8-237.6,292.5-239.3,293.8L-239.3,293.8z M-240.5,291.4c0.1-0.1,0.2-0.1,0.4-0.2
	c2.5-1.9,4.2-4.6,5-7.7c0-3.7-0.5-7.4-1.4-11c0-0.2-0.1-0.4-0.2-0.5c-0.4,3.6-2.2,6.9-4.9,9.4C-240.9,284.6-240.5,288-240.5,291.4
	L-240.5,291.4z M-309.3,296.9c10.9,3.6,16.9,4.7,24.8,4.7c2.9,0,6.2-0.1,10.3-0.5c11.6-1,23.9-4.8,30.5-8c0-3.2-0.3-6.4-1-9.6
	c-2.1,1.2-4.4,1.8-6.8,1.7c-2.8,0-6-0.5-11.4-1.8c-6.4-1.6-15.4-7-23.4-11.6c-4.3-2.6-8.5-5-11.9-6.7c-13.1-6.5-20.5-5.5-22.4-5.2
	c-4.7,7.9-7,17.1-6.4,26.3C-326,287.3-321.5,292.8-309.3,296.9L-309.3,296.9z M-302.6,259.6c5.6,2.5,11,5.2,16.3,8.3
	c9.7,5.2,19.7,10.6,26.5,12.2c6,1.6,10.9,1.3,14.4-0.4v-0.2c-0.1-0.2-0.1-0.5-0.2-0.7c-2.9-12.4-18.4-39.5-45.2-39.5
	c-1.1,0-2.2,0.1-3.4,0.1c-10,2.8-18.8,9.1-24.7,17.6c1.3-0.4,2.6-0.6,4-0.6C-311.5,256.6-307.4,257.7-302.6,259.6L-302.6,259.6z
	 M-242.6,277.8c0.6-0.7,1.1-1.5,1.6-2.4c3.2-6.2,0.5-13.2-0.8-15.6c-9.2-15-26.1-23.5-43.7-21.8C-267.2,239-249.4,255.4-242.6,277.8
	L-242.6,277.8z"/>
<path class="st0" d="M-263,292.6c0-3.4,0-8.3-4-12.1c0.5-0.7,0.8-1.5,1.1-2.4c0.6-1.8,0.8-3.7,0.7-5.6v-9.4
	c-0.1-3.5-0.6-7.1-3.5-10.2c-2.5-2.9-6.4-4.4-10.9-4.4H-292c-1.4,0-2.7,0.6-3.7,1.6c-0.9,1-1.5,2.3-1.4,3.6l0.1,60.5
	c0,1.8,0.9,3.5,2.5,4.4c0.8,0.5,1.8,0.8,2.8,0.8h12.7c4.2,0.1,8.2-1.3,11.4-4h0.1c4.2-3.7,4.6-8.2,4.7-12.4v-0.1L-263,292.6z"/>
<path d="M-279.8,277.7c-1,0.4-1.6,0.4-3.8,0.5h-2.4c-0.4,0-0.5-0.1-0.5-0.5v-19.4c0-0.2,0.2-0.5,0.4-0.5c0,0,0.1,0,0.1,0h3.8
	c1.7-0.1,3.4,0.2,4.9,0.8c0.5,0.3,0.9,0.8,1.1,1.4c0.3,1.1,0.5,2.1,0.5,3.2v8.2C-275.8,273.3-275.9,276.5-279.8,277.7z M-275.3,309
	c-1,0.7-2.2,1.1-5,1.2h-5.4c-0.4,0-0.6-0.4-0.6-0.7v-24.1c0-0.1,0-0.4,0.4-0.4h2.5c2.6,0.1,5.4,0.2,7.2,1.4c1,0.6,1.8,1.6,2.2,2.8
	c0.3,1.3,0.5,2.5,0.5,3.8v8.9C-273.5,305.9-273.8,307.8-275.3,309L-275.3,309z M-266.2,293.1c0-3.5,0-7.6-3.5-10.4
	c-0.8-0.7-1.7-1.2-2.6-1.6c1.6-1.1,2.8-2.7,3.4-4.6c0.4-1.5,0.6-3,0.6-4.6v-9.6c-0.1-2.6-0.4-5.8-2.6-8.2c-1.8-2-4.8-3.1-8.4-3.1
	h-13.1c-0.4,0-0.8,0.2-1.1,0.5c-0.2,0.3-0.4,0.7-0.4,1.1v63c0,0.5,0.3,1,0.7,1.3c0.3,0.2,0.5,0.2,0.8,0.2h13.2
	c3.4,0.1,6.7-1,9.4-3.1c3.1-2.9,3.5-6.2,3.6-10.1L-266.2,293.1z"/>
</svg>
