<?xml version="1.0" encoding="UTF-8" standalone="no"?>
<!-- Created with Inkscape (http://www.inkscape.org/) -->

<svg
   width="67.248314mm"
   height="16.536469mm"
   viewBox="0 0 67.248314 16.536469"
   version="1.1"
   id="svg5"
   inkscape:version="1.2.2 (732a01da63, 2022-12-09)"
   sodipodi:docname="logo.svg"
   xmlns:inkscape="http://www.inkscape.org/namespaces/inkscape"
   xmlns:sodipodi="http://sodipodi.sourceforge.net/DTD/sodipodi-0.dtd"
   xmlns="http://www.w3.org/2000/svg"
   xmlns:svg="http://www.w3.org/2000/svg">
  <sodipodi:namedview
     id="namedview7"
     pagecolor="#ffffff"
     bordercolor="#000000"
     borderopacity="0.25"
     inkscape:showpageshadow="2"
     inkscape:pageopacity="0.0"
     inkscape:pagecheckerboard="0"
     inkscape:deskcolor="#d1d1d1"
     inkscape:document-units="mm"
     showgrid="false"
     inkscape:zoom="0.914906"
     inkscape:cx="136.07955"
     inkscape:cy="208.76462"
     inkscape:window-width="2560"
     inkscape:window-height="1334"
     inkscape:window-x="-11"
     inkscape:window-y="-11"
     inkscape:window-maximized="1"
     inkscape:current-layer="layer1" />
  <defs
     id="defs2">
    <rect
       x="137.71907"
       y="328.99554"
       width="621.92181"
       height="312.60043"
       id="rect236" />
  </defs>
  <g
     inkscape:label="Layer 1"
     inkscape:groupmode="layer"
     id="layer1"
     transform="translate(-67.385292,-93.067229)">
    <text
       xml:space="preserve"
       transform="scale(0.26458333)"
       id="text234"
       style="font-style:normal;font-variant:normal;font-weight:normal;font-stretch:normal;font-size:66.6667px;font-family:'IBM Logo';-inkscape-font-specification:'IBM Logo, Normal';font-variant-ligatures:normal;font-variant-caps:normal;font-variant-numeric:normal;font-variant-east-asian:normal;text-align:center;white-space:pre;shape-inside:url(#rect236);fill:#ec0000;stroke:#081324;stroke-width:0" />
    <g
       aria-label="SYBW"
       id="text242"
       style="font-size:17.6389px;font-family:'IBM Logo';-inkscape-font-specification:'IBM Logo, Normal';text-align:center;text-anchor:middle;fill:#ec0000;stroke:#081324;stroke-width:0">
      <path
         d="m 67.385292,109.6037 v -1.10243 h 9.921882 v 1.10243 z m 0,-2.20486 v -1.10244 h 11.024313 v 1.10244 z m 7.717019,-2.20487 v -1.10243 h 3.307294 v 1.10243 z m -3.307294,-2.20486 v -1.10243 h 4.409725 v 1.10243 z m -2.204862,-2.20486 v -1.102433 h 4.409725 v 1.102433 z m -2.204863,-2.204864 v -1.102432 h 3.307294 v 1.102432 z m 0,-2.204863 v -1.102431 h 11.024313 v 1.102431 z m 1.102431,-2.204862 v -1.102432 h 9.921882 v 1.102432 z"
         style="fill:#f2f2f2"
         id="path244" />
      <path
         d="m 86.126624,109.6037 v -1.10243 h 5.512157 v 1.10243 z m 0,-2.20486 v -1.10244 h 5.512157 v 1.10244 z m 1.102431,-2.20487 v -1.10243 h 3.307294 v 1.10243 z m -1.102431,-2.20486 v -1.10243 h 5.512157 v 1.10243 z m -1.102431,-2.20486 v -1.102433 h 7.717019 v 1.102433 z m -1.102431,-2.204864 v -1.102432 h 3.307293 v 1.102432 z m 6.614587,0 v -1.102432 h 3.307294 v 1.102432 z m -8.81945,-2.204863 v -1.102431 h 5.512156 v 1.102431 z m 8.81945,0 v -1.102431 h 5.512157 v 1.102431 z m -8.81945,-2.204862 v -1.102432 h 5.512156 v 1.102432 z m 8.81945,0 v -1.102432 h 5.512157 v 1.102432 z"
         style="fill:#f2f2f2"
         id="path246" />
      <path
         d="m 99.355801,109.6037 v -1.10243 h 9.921879 v 1.10243 z m 0,-2.20486 v -1.10244 h 11.024309 v 1.10244 z m 1.102429,-2.20487 v -1.10243 h 3.3073 v 1.10243 z m 6.61459,0 v -1.10243 h 3.30729 v 1.10243 z m -6.61459,-2.20486 v -1.10243 h 8.81945 v 1.10243 z m 0,-2.20486 v -1.102433 h 8.81945 v 1.102433 z m 0,-2.204864 v -1.102432 h 3.3073 v 1.102432 z m 6.61459,0 v -1.102432 h 3.30729 v 1.102432 z m -7.717019,-2.204863 v -1.102431 h 11.024309 v 1.102431 z m 0,-2.204862 v -1.102432 h 9.921879 v 1.102432 z"
         style="fill:#f2f2f2"
         id="path248" />
      <path
         d="m 118.09713,109.6037 v -1.10243 h 5.51216 v 1.10243 z m 6.61459,0 v -1.10243 h 5.51216 v 1.10243 z m -7.71702,-2.20486 v -1.10244 h 14.33161 v 1.10244 z m 0,-2.20487 v -1.10243 h 3.3073 v 1.10243 z m 4.40973,0 v -1.10243 h 5.51215 v 1.10243 z m 6.61459,0 v -1.10243 h 3.30729 v 1.10243 z m -12.12675,-2.20486 v -1.10243 h 3.30729 v 1.10243 z m 6.61459,0 v -1.10243 h 3.30729 v 1.10243 z m 6.61459,0 v -1.10243 h 3.30729 v 1.10243 z m -13.22918,-2.20486 v -1.102433 h 3.30729 v 1.102433 z m 6.61459,0 v -1.102433 h 3.30729 v 1.102433 z m 6.61459,0 v -1.102433 h 3.30729 v 1.102433 z m -14.33161,-2.204864 v -1.102432 h 3.30729 v 1.102432 z m 15.43404,0 v -1.102432 h 3.30729 v 1.102432 z m -15.43404,-2.204863 v -1.102431 h 3.30729 v 1.102431 z m 15.43404,0 v -1.102431 h 3.30729 v 1.102431 z m -16.53647,-2.204862 v -1.102432 h 5.51215 v 1.102432 z m 15.43404,0 v -1.102432 h 5.51215 v 1.102432 z"
         style="fill:#f2f2f2"
         id="path250" />
    </g>
  </g>
</svg>
