<?xml version="1.0" encoding="UTF-8" standalone="no"?>
<svg
   xmlns:dc="http://purl.org/dc/elements/1.1/"
   xmlns:cc="http://creativecommons.org/ns#"
   xmlns:rdf="http://www.w3.org/1999/02/22-rdf-syntax-ns#"
   xmlns:svg="http://www.w3.org/2000/svg"
   xmlns="http://www.w3.org/2000/svg"
   xmlns:sodipodi="http://sodipodi.sourceforge.net/DTD/sodipodi-0.dtd"
   xmlns:inkscape="http://www.inkscape.org/namespaces/inkscape"
   height="262.44"
   width="258.55321"
   version="1.1"
   viewBox="0 0 258.55321 262.44"
   id="svg58"
   sodipodi:docname="rockets.svg"
   inkscape:version="0.92.3 (2405546, 2018-03-11)">
  <metadata
     id="metadata64">
    <rdf:RDF>
      <cc:Work
         rdf:about="">
        <dc:format>image/svg+xml</dc:format>
        <dc:type
           rdf:resource="http://purl.org/dc/dcmitype/StillImage" />
        <dc:title></dc:title>
      </cc:Work>
    </rdf:RDF>
  </metadata>
  <defs
     id="defs62" />
  <sodipodi:namedview
     pagecolor="#ffffff"
     bordercolor="#666666"
     borderopacity="1"
     objecttolerance="10"
     gridtolerance="10"
     guidetolerance="10"
     inkscape:pageopacity="0"
     inkscape:pageshadow="2"
     inkscape:window-width="1600"
     inkscape:window-height="837"
     id="namedview60"
     showgrid="false"
     inkscape:zoom="0.89925315"
     inkscape:cx="129.27661"
     inkscape:cy="131.22"
     inkscape:window-x="0"
     inkscape:window-y="30"
     inkscape:window-maximized="1"
     inkscape:current-layer="svg58" />
  <path
     inkscape:connector-curvature="0"
     class="st0"
     d="m 173.50356,149.8131 0.2303,-27.06038 c 32.70209,3.14249 59.41647,6.63416 59.41647,12.56999 0,6.80874 -24.41142,12.22082 -59.64677,14.49039 z m -25.56291,1.22209 c -5.75741,0 -12.2057,0.17459 -18.19341,0.17459 -6.6786,0 -12.66631,-0.17459 -19.11461,-0.17459 l 0.2303,-5.93583 c -0.46059,-15.01414 0.46059,-34.39287 0.92119,-54.819095 16.35105,1.396664 37.07772,4.53916 36.84742,13.442895 z M 110.17204,44.888661 c 22.33876,1.745831 42.60484,5.586658 44.21691,15.014145 3.22415,19.902473 -23.25993,26.362047 -42.60483,28.457043 0.46059,-14.490396 -0.2303,-28.980792 -1.61208,-43.471188 z M 85.530319,149.8131 c -35.005065,-2.26957 -58.955897,-7.68165 -58.955897,-14.49039 0,-5.93583 29.477948,-9.25291 59.186192,-12.56999 0,7.15791 -0.230295,15.01415 -0.460593,23.74331 z m 88.203541,-27.23496 0.2303,-23.394139 c 0,-14.490396 -26.2538,-12.919148 -34.77476,-12.220815 9.90273,-1.396665 44.44721,-7.681656 42.60484,-31.774124 -1.38179,-15.712478 -27.63558,-23.7433 -70.93131,-20.600804 -0.46059,0 -1.38178,0.174583 -1.84237,0.174583 C 107.17819,23.240357 103.72374,12.06704 98.887513,1.0683051 93.82099,12.765372 89.905952,24.811605 87.37269,36.857839 c -15.429863,2.094996 -30.859727,4.713743 -45.828997,8.205405 14.96927,-0.872916 29.93854,-1.222082 45.138108,-1.047499 -2.763558,20.949972 0,40.67786 0,78.562395 -45.598701,-1.0475 -85.43999,5.41207 -84.7491004,15.71248 0.2302964,9.07832 35.6959524,17.10914 84.7491004,20.25164 l 1.842371,50.97826 3.684745,-34.56744 c 0,-4.19 4.145336,-4.01542 4.145336,-0.17459 l 1.612075,45.21702 3.684742,-36.83703 c 0,-5.06291 4.37563,-4.88833 4.37563,-0.17459 l 1.61208,47.13743 2.99385,-70.35697 c 6.4483,0.17457 12.66631,0.17457 19.34491,0.17457 5.9877,0 12.436,0 18.19341,-0.17457 l 2.76356,71.92822 2.76355,-37.70995 c 0,-4.53915 4.14534,-4.53915 4.14534,-0.17457 l 2.76356,52.54951 2.53326,-45.3916 c 0.2303,-4.36459 5.06652,-4.19 5.06652,0 l 2.30297,60.40574 2.99385,-102.48027 v -0.17459 c 49.97434,-3.14249 85.90056,-11.3479 85.90056,-20.07705 -0.69089,-9.95125 -39.84127,-17.45832 -85.67026,-16.06165 z"
     id="path10"
     style="stroke-width:2.0051403;fill:#ffffff" />
</svg>
